<svg xmlns="http://www.w3.org/2000/svg" xmlns:xlink="http://www.w3.org/1999/xlink" id="gravityforms-logo" viewBox="0 0 1716.3 429.5"><style>    .st0{fill:#404040}.st3{clip-path:url(#SVGID_4_);fill-rule:evenodd;clip-rule:evenodd;fill:#f15a29}  </style><g id="g10" transform="matrix(1.33333 0 0 -1.33333 0 429.5)"><g id="g12"><g id="g14"><g id="g28" transform="translate(412 148.2)"><path id="path30" class="st0" d="M0 0h50.8v-13.9C41.9-27.8 24.5-33.4 3.1-33.4c-35 0-56.4 15.7-56.4 46.3S-32.2 59.2 2 59.2c20.4 0 34.6-5.9 45.4-18.1l17.1 12.2c-12.1 13-32.7 24.1-62.6 24.1-47.7 0-76.4-24.4-76.4-64.6s28.7-64.6 76.7-64.6c33.4 0 57.6 13.1 68.7 31v38.6H0V0z"></path></g><g id="g32" transform="translate(532 162.3)"><path id="path34" class="st0" d="M0 0v41.4h60.7c17.4 0 29.2-5.6 29.2-20.7C90 5.6 78.1 0 60.7 0H0zm111.4 20.9c0 25.2-20.9 38.8-49.2 38.8h-82.8V-62.1H.2v44.2h51.3l37.8-44.2H115L75.5-16.9c21.3 3.8 35.9 16.7 35.9 37.8"></path></g><g id="g36" transform="translate(702.3 147.3)"><path id="path38" class="st0" d="M0 0l29.8 56.4L59.5 0H0zm18.4 74.7l-66-121.8H-25l15.5 29.4h78.1l15.7-29.4h22.8L41.4 74.7h-23z"></path></g><g id="g40" transform="translate(872.7 121.6)"><path id="path42" class="st0" d="M0 0l-51.3 100.4h-23.1l63.2-121.8H11l63.2 121.8H51.3L0 0z"></path></g><path id="path44" class="st0" d="M966.8 100.2h20.9V222h-20.9V100.2z"></path><g id="g46" transform="translate(1009.4 203.7)"><path id="path48" class="st0" d="M0 0h55.2v-103.5H76V0h55.5v18.3H0V0z"></path></g><g id="g50" transform="translate(1263.2 222)"><path id="path52" class="st0" d="M0 0l-46.1-61.8L-92.6 0h-24.2l60-79.7v-42.1h20.9v42.1L24 0H0z"></path></g></g></g></g><g id="gravityforms_icon_2_color_1_"><defs><path id="SVGID_1_" d="M.3.1h394.3v429.5H.3z"></path></defs><clipPath id="SVGID_2_"><use xlink:href="#SVGID_1_"></use></clipPath><path clip-path="url(#SVGID_2_)" fill-rule="evenodd" clip-rule="evenodd" fill="#fff" d="M336.3 316.9L157.4 418.2 49.7 356.9V137.4l149.3-85 137.3 83z"></path><g clip-path="url(#SVGID_2_)"><defs><path id="SVGID_3_" d="M.3.1h394.3v429.5H.3z"></path></defs><clipPath id="SVGID_4_"><use xlink:href="#SVGID_3_"></use></clipPath><path class="st3" d="M355.9 79L235.7 9.5A78.6 78.6 0 0 0 197.5.1a79.7 79.7 0 0 0-38.2 9.4L38.5 79A83.8 83.8 0 0 0 .3 145v139.5a82 82 0 0 0 38.2 66l29 16.7V205.7l.4.2v-.2l107.5 63.4c20.8 12.2 24.8 11.6 47.1-1.7 10-6 20.3-11.8 30.6-17.5l10.6-6 16.3-9.5 5.1-3.1 15.7-9.3 1.4-.8v-39.9c-.4-15.3-2.3-25.3-21.6-36.4l-64-37c-18-10.2-22.8-9.1-43.7 3.4l-1.6.9a1847.8 1847.8 0 0 1-52.8 30.4c-9.2 5.2-15 8.8-18.5 13-5.1 6.1-3.3 9.6 2.4 14.8 2.7 2.4 6.3 4.8 11.1 7.6 20.6 12.1 41.5 23.7 62.2 35.9 20.8 12.2 24.8 11.6 47.1-1.7 9.5-5.7 19.4-11.2 29.2-16.7-2.2-7.8-7.3-12-18.8-18.6l-43.9-25.4c-5.7-3.4-6.4-12.9-.1-16.8l5.6-3.6c6.2-3.9 6-4 9.9-1.7l49.9 29.1c13.8 8 20.4 13.2 23.3 22.2a70.8 70.8 0 0 1 2.2 20v9.7c-8.8 5.1-17.8 10-26.7 15.1-8.1 4.6-16.3 9.3-24.2 14-28.1 16.8-33.2 17.6-59.3 2.2-25-14.8-50.2-28.8-75.1-43.4l-.2-.1-2.9-1.7a104 104 0 0 1-7.2-4.4c-7.9-5.3-12.2-9.9-14.4-16.7-3-9.1-2.6-23.6 2.2-31.8 3.3-5.7 9-10.1 18.6-15.7l3.7-2.1.2-.1 3.2-1.8 1-.6v-.3c22.1-12.3 43.5-24.6 65.2-37.6 28.1-16.9 33.8-18.8 57-5.6 26.4 15.1 52.9 30.6 79.3 45.8l1.3.8c19.5 11.2 24.4 16.9 25.3 35.4v97.9l.1-.1v.4c.2 24.7-2.2 31.6-19.8 42.4a800 800 0 0 1-32.7 19.1c-15.3 8.7-30.9 17.2-45.9 26.2-26.2 15.8-32.4 17.4-54.3 5.1l-5-2.9c-26-15.3-52.3-30-78.3-45.2l-2-1.2V380l69.8 40.2c10.4 6 24.3 9.4 38.2 9.4 13.9 0 27.8-3.5 38.2-9.4l120.7-69.5a83.8 83.8 0 0 0 38.2-66V145.1A79.6 79.6 0 0 0 355.9 79"></path><path class="st3" d="M267.8 294.9c4.1-2.3 8.1-4.7 12-7.1l1.9-1.1 20.3-12v-22.2l-1.4.8a871 871 0 0 1-20.9 12.1L253 280.5c-8.1 4.6-16.2 9.2-24.1 13.9-28.1 16.8-33.2 17.6-59.3 2.2-25.1-14.8-50.3-28.9-75.3-43.5l-2.9-1.7-2-1.2v22.1l17.9 10.6c1.7 1.2 3.7 2.4 5.9 3.7l16 9.3c15.4 8.8 30.8 17.6 46.1 26.6 20.8 12.2 24.8 11.6 47.1-1.8 9-5.4 18.3-10.6 27.6-15.8-.1.3 17.8-10 17.8-10"></path></g></g></svg>